<svg 
 xmlns="http://www.w3.org/2000/svg"
 xmlns:xlink="http://www.w3.org/1999/xlink"
 width="65px" height="124px">
<path fill-rule="evenodd"  fill="rgb(54, 64, 55)"
 d="M62.697,60.386 L42.446,68.214 L25.143,122.555 C24.990,123.067 24.467,123.354 23.974,123.196 C23.481,123.038 23.204,122.494 23.357,121.982 L37.036,70.306 L11.446,80.197 L4.582,100.710 C4.430,101.222 3.906,101.509 3.413,101.351 C2.920,101.193 2.644,100.650 2.796,100.137 L7.531,81.710 L2.262,83.748 C1.785,83.948 0.987,84.246 0.450,82.812 C-0.051,81.474 0.850,81.035 1.327,80.835 L8.663,77.307 L24.224,16.757 C24.376,16.245 26.065,14.349 29.061,15.463 C31.937,16.532 31.853,19.158 31.701,19.670 L13.132,75.158 L39.050,62.695 L55.065,2.194 C55.218,1.682 56.906,-0.214 59.902,0.900 C62.778,1.969 62.694,4.594 62.542,5.107 L45.136,59.769 L60.155,52.547 C60.632,52.346 63.107,52.508 64.165,55.615 C65.181,58.599 63.175,60.185 62.697,60.386 Z"/>
</svg>